<svg xmlns="http://www.w3.org/2000/svg" height="720" width="720" fill="#FFFFFF" style=""><rect id="backgroundrect" width="100%" height="100%" x="0" y="0" fill="none" stroke="none"/><g class="currentLayer" style=""><title>Layer 1</title><path d="M340,540 h40 v-220 h-40 v220 zm20,-276.92 q10.46,0 17.54,-7.08 q7.08,-7.08 7.08,-17.54 q0,-10.46 -7.08,-17.54 q-7.08,-7.07 -17.54,-7.07 q-10.46,0 -17.54,7.07 q-7.08,7.08 -7.08,17.54 q0,10.46 7.08,17.54 q7.08,7.08 17.54,7.08 zm0.13,456.92 q-74.67,0 -140.41,-28.34 q-65.73,-28.34 -114.36,-76.92 q-48.63,-48.58 -76.99,-114.26 Q0,434.81 0,360.13 q0,-74.67 28.34,-140.41 q28.34,-65.73 76.92,-114.36 q48.58,-48.63 114.26,-76.99 Q285.19,0 359.87,0 q74.67,0 140.41,28.34 q65.73,28.34 114.36,76.92 q48.63,48.58 76.99,114.26 Q720,285.19000000000005 720,359.87 q0,74.67 -28.34,140.41 q-28.34,65.73 -76.92,114.36 q-48.58,48.63 -114.26,76.99 Q434.80999999999995,720 360.13,720 zm-0.13,-40 q134,0 227,-93 t93,-227 q0,-134 -93,-227 t-227,-93 q-134,0 -227,93 t-93,227 q0,134 93,227 t227,93 zm0,-320 z" id="svg_1" class="selected" fill-opacity="1" fill="#f97316"/></g></svg>